PathFileType	4	(X/Y/Z)	/home/nbianco/projects/addbio/data/HamnerRunning2013/Processed/subject01//results/MarkerData/run400.trc
DataRate	CameraRate	NumFrames	NumMarkers	Units	OrigDataRate	OrigDataStartFrame	OrigNumFrames
100	100	9	42	m	100	76	205
Frame#	Time	C7			CLAV			LACR			LASI			LCAL			LFAradius			LFAsuperior			LFAulna			LLEL			LMEL			LMT5			LPSI			LTB1			LTB2			LTB3			LTH1			LTH2			LTH3			LTOE			LUA1			LUA2			LUA3			RACR			RASI			RCAL			RFAradius			RFAsuperior			RFAulna			RLEL			RMEL			RMT5			RPSI			RTB1			RTB2			RTB3			RTH1			RTH2			RTH3			RTOE			RUA1			RUA2			RUA3		
		X1	Y1	Z1	X2	Y2	Z2	X3	Y3	Z3	X4	Y4	Z4	X5	Y5	Z5	X6	Y6	Z6	X7	Y7	Z7	X8	Y8	Z8	X9	Y9	Z9	X10	Y10	Z10	X11	Y11	Z11	X12	Y12	Z12	X13	Y13	Z13	X14	Y14	Z14	X15	Y15	Z15	X16	Y16	Z16	X17	Y17	Z17	X18	Y18	Z18	X19	Y19	Z19	X20	Y20	Z20	X21	Y21	Z21	X22	Y22	Z22	X23	Y23	Z23	X24	Y24	Z24	X25	Y25	Z25	X26	Y26	Z26	X27	Y27	Z27	X28	Y28	Z28	X29	Y29	Z29	X30	Y30	Z30	X31	Y31	Z31	X32	Y32	Z32	X33	Y33	Z33	X34	Y34	Z34	X35	Y35	Z35	X36	Y36	Z36	X37	Y37	Z37	X38	Y38	Z38	X39	Y39	Z39	X40	Y40	Z40	X41	Y41	Z41	X42	Y42	Z42

77	1.63	0.920526	1.52114	-0.323668	1.04481	1.4476	-0.289522	0.977852	1.51102	-0.48176	0.983807	1.01415	-0.502827	0.511359	0.58526	-0.385398	1.00931	1.1312	-0.517332	0.861155	1.17078	-0.63391	0.99697	1.07508	-0.562052	0.805653	1.23739	-0.644381	0.774667	1.21443	-0.562781	0.441135	0.421909	-0.50785	0.832022	1.07507	-0.417925	0.850165	0.428744	-0.438531	0.74187	0.522135	-0.47763	0.633956	0.459112	-0.430615	0.938426	0.87684	-0.518129	0.86974	0.723411	-0.485547	0.928753	0.59356	-0.492141	0.470428	0.354291	-0.422504	0.876048	1.42584	-0.544207	0.901758	1.35218	-0.581203	0.827143	1.29883	-0.616784	0.984218	1.47336	-0.159055	0.972946	1.01654	-0.219535	0.839337	0.101312	-0.328961	0.994677	1.09176	-0.0857753	0.845749	1.15077	0.00248779	0.96421	1.04758	-0.0429045	0.764347	1.22427	-0.00127297	0.764576	1.19399	-0.0864253	1.03169	0.0509556	-0.257936	0.818271	1.0719	-0.305006	1.06996	0.3807	-0.296603	0.985517	0.347117	-0.229075	0.993175	0.205869	-0.32076	0.902668	0.902184	-0.171106	0.901754	0.749878	-0.204858	0.999615	0.620529	-0.210875	1.08157	0.073341	-0.353157	0.859754	1.39689	-0.0932062	0.894646	1.33066	-0.0651872	0.809565	1.27309	-0.0260201
78	1.64	0.920868	1.5175	-0.322731	1.04489	1.44169	-0.290194	0.976	1.50537	-0.481821	0.978033	1.01046	-0.501828	0.533442	0.579043	-0.39074	0.995327	1.11085	-0.520805	0.848603	1.16442	-0.633814	0.979761	1.05898	-0.568839	0.796231	1.23468	-0.641398	0.767026	1.21156	-0.559735	0.470853	0.410026	-0.509681	0.826248	1.07157	-0.416792	0.876833	0.427269	-0.43901	0.767357	0.517826	-0.481736	0.660765	0.454241	-0.432624	0.936649	0.874905	-0.519202	0.879034	0.718373	-0.488033	0.946946	0.592443	-0.494294	0.501935	0.345793	-0.422624	0.871882	1.42183	-0.542714	0.895574	1.34744	-0.579871	0.819017	1.29561	-0.613636	0.985816	1.46679	-0.158653	0.969043	1.01247	-0.217945	0.801173	0.10242	-0.32845	1.01046	1.07638	-0.087544	0.864007	1.13383	0.00592623	0.981461	1.03231	-0.0434705	0.781189	1.20669	0.00519364	0.779456	1.17683	-0.0799904	0.992964	0.0500835	-0.257681	0.813997	1.06738	-0.304684	1.04883	0.371414	-0.299267	0.963124	0.342377	-0.230758	0.961109	0.201455	-0.321622	0.899307	0.897972	-0.171588	0.895011	0.74541	-0.206578	0.989597	0.613836	-0.212752	1.04316	0.0723744	-0.352653	0.868827	1.38326	-0.0894918	0.904141	1.31815	-0.063376	0.823258	1.25666	-0.0214584
79	1.65	0.920355	1.51441	-0.322143	1.04465	1.43722	-0.291093	0.973972	1.50131	-0.48177	0.972959	1.00819	-0.500138	0.554147	0.569704	-0.396574	0.980355	1.09454	-0.524409	0.835955	1.16129	-0.633585	0.962054	1.04751	-0.576052	0.786482	1.23441	-0.638624	0.758726	1.21087	-0.556757	0.502047	0.393826	-0.510685	0.821174	1.06947	-0.414967	0.904771	0.427685	-0.439014	0.792605	0.513057	-0.485382	0.688014	0.448306	-0.434026	0.934233	0.874372	-0.520824	0.888807	0.715892	-0.490404	0.965625	0.594176	-0.49607	0.536004	0.334153	-0.421731	0.867627	1.41971	-0.541501	0.889458	1.34432	-0.578323	0.810742	1.29467	-0.610346	0.987774	1.4616	-0.158642	0.966242	1.0094	-0.217746	0.762977	0.103257	-0.328413	1.02768	1.06407	-0.0911355	0.884711	1.12048	0.00785441	1.00071	1.02028	-0.0452836	0.799552	1.19127	0.0108443	0.795278	1.16156	-0.0741886	0.954285	0.0494258	-0.257412	0.810837	1.06494	-0.303294	1.02443	0.362351	-0.301412	0.937266	0.337245	-0.232599	0.927527	0.196935	-0.32239	0.896128	0.894697	-0.172312	0.886225	0.742317	-0.207628	0.975778	0.607134	-0.214567	1.00475	0.0714589	-0.352405	0.878078	1.37202	-0.0882437	0.913646	1.30865	-0.0622431	0.837579	1.24323	-0.0176524
80	1.66	0.91925	1.51226	-0.321435	1.04434	1.43445	-0.29217	0.971371	1.49914	-0.481715	0.969041	1.00727	-0.498525	0.5738	0.557163	-0.402377	0.965504	1.08442	-0.52851	0.822589	1.16132	-0.633345	0.944373	1.04127	-0.582573	0.775819	1.23676	-0.636315	0.749241	1.21282	-0.553806	0.53472	0.374358	-0.510924	0.817252	1.06873	-0.41322	0.933469	0.430239	-0.43878	0.817394	0.508212	-0.488454	0.715546	0.441523	-0.43483	0.931849	0.874718	-0.522551	0.899137	0.715719	-0.493115	0.984458	0.598654	-0.4974	0.572181	0.320151	-0.420012	0.862814	1.41946	-0.540163	0.882774	1.34328	-0.576852	0.801854	1.29611	-0.607118	0.990419	1.45814	-0.158966	0.964287	1.00724	-0.218724	0.724904	0.104239	-0.328854	1.04561	1.05689	-0.0966856	0.90641	1.1114	0.00809376	1.0215	1.0131	-0.0489224	0.818598	1.17919	0.0151872	0.811402	1.14927	-0.0695367	0.915744	0.0493734	-0.257449	0.808633	1.06469	-0.301447	0.997592	0.354994	-0.303205	0.909343	0.333433	-0.234172	0.893066	0.193597	-0.323005	0.892369	0.892678	-0.17301	0.875882	0.740765	-0.20775	0.959321	0.601475	-0.216019	0.966384	0.0710016	-0.352538	0.88613	1.36388	-0.0883616	0.923474	1.30232	-0.0621271	0.852343	1.23329	-0.0149692
81	1.67	0.918175	1.5118	-0.320358	1.04407	1.43364	-0.293393	0.968056	1.49895	-0.481689	0.966337	1.00779	-0.497528	0.592991	0.541371	-0.40774	0.951745	1.08179	-0.533142	0.808213	1.16438	-0.632999	0.927122	1.04001	-0.58676	0.76394	1.24177	-0.634316	0.738634	1.21766	-0.550816	0.568771	0.352544	-0.510448	0.814546	1.06942	-0.41209	0.962065	0.43507	-0.438234	0.841533	0.503982	-0.490873	0.743567	0.433991	-0.435368	0.93044	0.876108	-0.524075	0.909781	0.717827	-0.496238	1.00302	0.605871	-0.498393	0.609978	0.304453	-0.41765	0.85717	1.42117	-0.538333	0.874984	1.34491	-0.57574	0.792035	1.3001	-0.604216	0.993705	1.45683	-0.159634	0.962863	1.00611	-0.220106	0.686941	0.105881	-0.32941	1.06334	1.05653	-0.103988	0.927278	1.10665	0.00656564	1.04287	1.01198	-0.0548954	0.837091	1.17111	0.0178007	0.82712	1.14091	-0.0666126	0.877104	0.0495964	-0.257694	0.807127	1.06609	-0.299856	0.968794	0.349657	-0.304587	0.879868	0.331341	-0.235254	0.858053	0.191916	-0.323375	0.887955	0.892005	-0.173586	0.864426	0.740698	-0.207374	0.940908	0.597471	-0.217111	0.927939	0.0708417	-0.352767	0.892798	1.35919	-0.0883401	0.933552	1.29893	-0.063106	0.866983	1.227	-0.0136459
82	1.68	0.917502	1.51335	-0.319118	1.04391	1.43489	-0.294786	0.964153	1.50069	-0.481679	0.964685	1.00979	-0.497113	0.612266	0.522415	-0.412257	0.939461	1.08639	-0.537817	0.793391	1.17057	-0.632275	0.910892	1.04337	-0.587995	0.751114	1.24936	-0.632197	0.727442	1.22527	-0.547761	0.604219	0.32916	-0.509338	0.812899	1.07161	-0.411541	0.989655	0.441998	-0.43734	0.86474	0.500824	-0.492559	0.772212	0.425797	-0.435953	0.930523	0.87919	-0.525345	0.920137	0.722187	-0.499244	1.02071	0.615711	-0.499221	0.649193	0.287585	-0.414918	0.850753	1.42501	-0.535905	0.86606	1.34948	-0.575043	0.781383	1.30672	-0.601739	0.997234	1.45793	-0.160601	0.961881	1.0061	-0.221267	0.648919	0.108812	-0.329675	1.07999	1.06352	-0.11267	0.946189	1.10622	0.00327579	1.06371	1.0173	-0.0633531	0.853972	1.16697	0.0185879	0.841813	1.13681	-0.0656933	0.837892	0.049728	-0.258096	0.80616	1.06847	-0.298814	0.938246	0.346063	-0.305584	0.848808	0.330662	-0.235911	0.822477	0.191779	-0.323568	0.883394	0.892561	-0.174127	0.852219	0.742134	-0.206977	0.920805	0.595242	-0.217994	0.889099	0.0706448	-0.353044	0.899001	1.35799	-0.087379	0.943295	1.29834	-0.0648409	0.880674	1.22423	-0.0136084
83	1.69	0.917136	1.51656	-0.318158	1.04386	1.43804	-0.296409	0.959962	1.50423	-0.481681	0.963942	1.01321	-0.496828	0.632038	0.500581	-0.415486	0.92846	1.09661	-0.541775	0.77922	1.18008	-0.630915	0.896476	1.0512	-0.587363	0.738029	1.25928	-0.629583	0.71626	1.23517	-0.544576	0.64131	0.304977	-0.507735	0.812166	1.0752	-0.411123	1.01569	0.450496	-0.436312	0.886772	0.498595	-0.493469	0.801116	0.41709	-0.436506	0.931927	0.884469	-0.526489	0.929584	0.728526	-0.501442	1.03684	0.627744	-0.499949	0.689973	0.270071	-0.412197	0.843932	1.43105	-0.53304	0.856522	1.35669	-0.574551	0.770401	1.31575	-0.599524	1.00053	1.46138	-0.16174	0.961527	1.0072	-0.222097	0.610868	0.113719	-0.329365	1.09492	1.0769	-0.122375	0.963014	1.10996	-0.00158157	1.08315	1.02846	-0.0739237	0.868825	1.16609	0.0178275	0.855119	1.13652	-0.0665863	0.797842	0.0497405	-0.258795	0.805757	1.07149	-0.298132	0.90615	0.34425	-0.306136	0.816245	0.331443	-0.236278	0.786457	0.193167	-0.323794	0.879266	0.894213	-0.174753	0.83974	0.745245	-0.206628	0.899386	0.594805	-0.218776	0.849632	0.0703061	-0.353652	0.905544	1.3599	-0.0857807	0.952035	1.30043	-0.0668038	0.892827	1.22454	-0.0145521
84	1.7	0.916814	1.52092	-0.317726	1.04391	1.44286	-0.298302	0.955851	1.50936	-0.481711	0.964049	1.0178	-0.496235	0.652705	0.476304	-0.417015	0.918371	1.11041	-0.544471	0.766472	1.19255	-0.628839	0.884398	1.06309	-0.586578	0.725389	1.27111	-0.626344	0.70548	1.24679	-0.541106	0.680358	0.280818	-0.505811	0.812271	1.07997	-0.410394	1.04003	0.459902	-0.435403	0.9076	0.496712	-0.493625	0.829617	0.408043	-0.436616	0.934122	0.891901	-0.527632	0.937852	0.736351	-0.502545	1.0509	0.641243	-0.500488	0.732561	0.252516	-0.409856	0.837247	1.4391	-0.530004	0.847119	1.36586	-0.573935	0.759748	1.32667	-0.597283	1.00329	1.46684	-0.162953	0.962106	1.00926	-0.22273	0.573338	0.121168	-0.328349	1.10772	1.09485	-0.132779	0.978083	1.11726	-0.00757567	1.10068	1.04422	-0.085801	0.881855	1.1676	0.0159909	0.866979	1.13911	-0.0687814	0.757233	0.0498363	-0.259786	0.806127	1.07522	-0.297441	0.872995	0.344751	-0.305943	0.782702	0.334304	-0.236362	0.750578	0.196427	-0.324221	0.875988	0.896903	-0.175503	0.827633	0.75019	-0.20612	0.877321	0.596385	-0.219445	0.809677	0.06991	-0.354697	0.912222	1.36415	-0.0844607	0.959523	1.30491	-0.0686791	0.90343	1.22725	-0.0161455
85	1.71	0.91644	1.52613	-0.317713	1.04406	1.44911	-0.300452	0.952138	1.51572	-0.481804	0.964906	1.02324	-0.495176	0.674778	0.450046	-0.416545	0.909017	1.12609	-0.545859	0.755153	1.20702	-0.626137	0.874509	1.07795	-0.586477	0.713612	1.28431	-0.622537	0.695356	1.25966	-0.53717	0.721482	0.257439	-0.503716	0.813104	1.08559	-0.4092	1.06267	0.469667	-0.434717	0.927354	0.494588	-0.493069	0.857437	0.398734	-0.435938	0.936659	0.900959	-0.528786	0.945013	0.745157	-0.502745	1.06268	0.655404	-0.500716	0.776997	0.235508	-0.408072	0.831202	1.44882	-0.527029	0.838469	1.37624	-0.572954	0.749953	1.33886	-0.59478	1.00552	1.47386	-0.164254	0.963833	1.01216	-0.22302	0.537324	0.131441	-0.326649	1.11815	1.11548	-0.143495	0.991568	1.12699	-0.0141884	1.11603	1.06315	-0.0980766	0.893488	1.17084	0.0134991	0.877506	1.14366	-0.0717274	0.716731	0.0502138	-0.260699	0.80753	1.0798	-0.296473	0.839652	0.348105	-0.304764	0.74907	0.33988	-0.236059	0.715666	0.201994	-0.324661	0.873941	0.900577	-0.17634	0.816487	0.756933	-0.205343	0.855345	0.60036	-0.21992	0.769685	0.0694877	-0.355746	0.918164	1.36988	-0.0841326	0.965977	1.31116	-0.070501	0.912899	1.23167	-0.0181401
